<svg xmlns="http://www.w3.org/2000/svg" width="16" height="16" viewBox="0 0 16 16">
  <g id="favicon" transform="translate(-171 -656)">
    <rect id="Rectangle_1086" data-name="Rectangle 1086" width="16" height="16" transform="translate(171 656)" fill="#fff" opacity="0"/>
    <g id="Logo_haply_GRØN" transform="translate(1697.383 565.153)">
      <g id="Logotekst" transform="translate(-1522.543 91.845)">
        <path id="Path_20" data-name="Path 20" d="M233.235,441.005c2.428,0,4.269,1.234,4.269,4.269v5.855c0,.137-.078.215-.235.215h-1.155a.2.2,0,0,1-.216-.215v-5.8c0-2.114-1-2.878-2.761-2.878a5.463,5.463,0,0,0-2.35.509v8.165c0,.137-.078.215-.235.215H229.4a.2.2,0,0,1-.216-.215V437.559a.2.2,0,0,1,.216-.215h1.155c.157,0,.235.078.235.215v3.936A6.187,6.187,0,0,1,233.235,441.005Z" transform="translate(-229.182 -437.343)" fill="#129e41"/>
      </g>
    </g>
  </g>
</svg>
